PathFileType	3	(X/Y/Z)	C:\Users\koon_\Desktop\																																																																															
DataRate	CameraRate	NumFrames	NumMarkers	Units	OrigDataRate	OrigDataStartFrame	OrigNumFrames																																																																											
100	100	8	27	mm	100	1903	2174																																																																											
Frame#	Time	get:LFHD			get:RFHD			get:LBHD			get:RBHD			get:C7			get:T10			get:CLAV			get:STRN			get:RBAK			get:LSHO			get:LUPA			get:LELB			get:LFRA			get:LWRA			get:LWRB			get:LFIN			get:RSHO			get:RUPA			get:RELB			get:RFRA			get:RWRA			get:RWRB			get:RFIN			get:LASI			get:RASI			get:LPSI			get:RPSI		
		X1	Y1	Z1	X2	Y2	Z2	X3	Y3	Z3	X4	Y4	Z4	X5	Y5	Z5	X6	Y6	Z6	X7	Y7	Z7	X8	Y8	Z8	X9	Y9	Z9	X10	Y10	Z10	X11	Y11	Z11	X12	Y12	Z12	X13	Y13	Z13	X14	Y14	Z14	X15	Y15	Z15	X16	Y16	Z16	X17	Y17	Z17	X18	Y18	Z18	X19	Y19	Z19	X20	Y20	Z20	X21	Y21	Z21	X22	Y22	Z22	X23	Y23	Z23	X24	Y24	Z24	X25	Y25	Z25	X26	Y26	Z26	X27	Y27	Z27
1903	19.02	70.060326	1538.5082	-9.7042236	-76.084084	1534.7742	-17.188272	73.286461	1525.2463	-147.65642	-76.477158	1515.6931	-148.46313	-8.651173	1318.905	-204.2158	9.337635	1102.3148	-230.12222	9.8911066	1242.0502	-9.0417557	15.775645	1089.4193	37.907005	-92.055962	1241.3025	-223.97339	156.32375	1330.5757	-144.91002	314.79572	1208.7594	-99.028969	394.75665	1124.2542	-130.9843	376.33978	1206.0267	-93.503891	407.80478	1315.8907	18.886248	472.90253	1311.2877	-15.451283	465.87073	1386.3666	14.233406	-132.81799	1328.8365	-108.492	-245.58968	1247.3712	-83.872871	-389.0603	1110.7606	-101.70049	-380.38449	1239.4291	-16.792206	-397.35043	1310.7356	50.304691	-461.2348	1283.8513	26.964949	-447.94757	1371.3048	61.218807	152.41144	886.72174	-34.444134	-145.53258	893.96667	-29.124634	54.514595	921.69757	-217.87273	-33.696529	916.32678	-219.73314
1904	19.03	69.765388	1538.4639	-10.033508	-76.356522	1534.6271	-17.53064	72.99408	1525.3469	-148.00253	-76.746658	1515.6342	-148.7131	-8.76011	1318.859	-204.1417	9.0412006	1102.2723	-230.48648	9.8352213	1242.0349	-9.50109	15.649266	1089.4012	38.009956	-92.318138	1241.2101	-224.20911	156.20026	1330.4868	-145.43491	314.86478	1208.385	-98.763885	394.95367	1124.0969	-130.33881	378.08032	1205.3245	-90.216179	411.67004	1310.8147	26.615566	476.69943	1305.9301	-8.3575115	471.44202	1380.0389	24.285759	-132.87886	1328.9955	-108.90508	-245.54077	1247.6477	-83.702255	-389.76532	1111.3567	-100.94405	-382.41492	1237.083	-11.005962	-399.90591	1305.2332	59.038277	-463.6673	1278.4606	35.000263	-451.16171	1364.5299	72.78614	152.33813	886.75525	-34.652851	-145.6277	893.974	-29.206474	54.335178	921.68567	-218.04462	-33.83691	916.32397	-219.91786
1905	19.04	69.489746	1538.412	-10.365777	-76.578827	1534.493	-17.812464	72.761177	1525.4746	-148.33588	-77.018578	1515.608	-149.0024	-8.944322	1318.768	-204.1215	8.7442837	1102.1923	-230.79861	9.7812109	1242.0363	-9.9821234	15.59538	1089.2734	37.981613	-92.577057	1241.1923	-224.49086	156.08716	1330.3671	-146.01428	314.72751	1208.0553	-98.334496	394.54291	1123.4196	-129.03397	379.76633	1204.3695	-86.870209	415.60773	1305.1835	33.827206	480.52829	1299.9576	-1.1451662	477.20557	1372.7786	34.682056	-132.89133	1329.1018	-109.02486	-245.50142	1247.9146	-83.630745	-390.46371	1111.8037	-100.10802	-384.50769	1234.1814	-5.0960703	-402.43024	1298.9453	67.937668	-466.12515	1272.3809	43.282627	-454.8244	1356.6534	84.547752	152.29053	886.84247	-34.855328	-145.72562	893.99329	-29.226561	54.199982	921.66028	-218.18407	-34.051636	916.25171	-220.01067
1906	19.05	69.336258	1538.3593	-10.66242	-76.848839	1534.2711	-18.209455	72.557304	1525.5942	-148.66127	-77.222084	1515.6067	-149.41521	-9.17049	1318.822	-204.5083	8.3928804	1102.2246	-231.29228	9.6612158	1242.0425	-10.479031	15.437481	1089.5765	37.824196	-92.811852	1241.2694	-225.02573	155.98427	1330.2279	-146.55293	314.65427	1207.8409	-98.005478	394.59567	1123.0123	-128.39212	381.55875	1203.2467	-83.600815	419.48489	1298.9344	41.113583	484.37054	1293.2709	6.0732036	483.00592	1364.5524	45.191669	-132.86685	1329.1903	-108.97893	-245.43016	1248.2548	-83.590721	-391.10693	1112.1072	-99.261223	-386.49774	1230.7065	0.9706015	-404.88144	1291.6776	76.817749	-468.37756	1265.1848	51.331505	-457.78009	1347.8806	95.899635	152.1916	886.87274	-35.060265	-145.78374	893.98114	-29.293877	54.042408	921.62506	-218.33197	-34.259308	916.20508	-220.13193
1907	19.06	69.110977	1538.2913	-10.963223	-77.058258	1534.1069	-18.529514	72.349632	1525.7699	-149.06297	-77.426216	1515.6301	-149.76151	-9.375718	1318.822	-204.913	8.049696	1102.2117	-231.65129	9.6430111	1242.0369	-10.890712	15.398476	1089.588	37.412987	-93.059425	1241.2843	-225.37471	155.925	1330.0729	-147.07884	314.74472	1207.7134	-97.759041	394.34894	1122.2854	-127.45129	383.37253	1201.8232	-80.226845	423.29425	1292.0457	48.254623	488.13223	1285.907	13.211143	488.69751	1355.1763	55.818882	-132.81348	1329.3243	-109.02484	-245.36841	1248.5873	-83.553741	-391.65268	1112.2751	-98.531433	-388.35449	1226.6272	6.9553547	-407.11731	1283.5532	85.5895	-470.39374	1257.2563	59.316006	-461.21268	1337.8098	107.90518	152.1369	886.94061	-35.224037	-145.87616	893.99359	-29.27763	53.866772	921.62976	-218.48895	-34.444523	916.13922	-220.19539
1908	19.07	68.897179	1538.2136	-11.302127	-77.292313	1533.9333	-18.898342	72.167183	1525.9338	-149.37694	-77.595802	1515.6785	-150.16064	-9.59899	1318.785	-205.3519	7.6614895	1102.1482	-231.90277	9.6231375	1242.0278	-11.316289	15.345181	1089.6169	37.019226	-93.342598	1241.2458	-225.69183	155.85812	1329.9375	-147.57077	314.81116	1207.547	-97.498405	394.05829	1121.4027	-126.58327	385.18756	1200.1432	-76.956718	427.02045	1284.589	55.658237	491.8035	1277.868	20.216183	494.70001	1345.0576	66.530754	-132.81224	1329.3815	-109.19818	-245.30928	1248.87	-83.565666	-392.29919	1112.0372	-97.681152	-389.97021	1221.9382	12.915616	-408.98416	1274.559	94.280724	-472.46738	1248.4395	66.822792	-463.70328	1326.8665	119.13942	152.06238	886.99121	-35.425644	-146.00018	893.99268	-29.306707	53.654964	921.56348	-218.62453	-34.613125	916.09845	-220.29552
1909	19.08	68.749672	1538.1288	-11.620869	-77.455444	1533.792	-19.178104	72.028908	1526.0848	-149.72021	-77.767372	1515.7085	-150.40269	-9.826765	1318.781	-205.6772	7.3236127	1102.1368	-232.23022	9.5997105	1241.9948	-11.781869	15.327676	1089.6138	36.672783	-93.553383	1241.2688	-226.09454	155.77844	1329.8521	-148.0584	314.74466	1207.2209	-97.177345	393.81042	1120.3479	-125.77452	386.96252	1198.026	-73.826614	430.58463	1276.5795	62.702579	495.38208	1269.0957	27.185888	500.50192	1333.6942	77.148621	-132.80632	1329.3948	-109.41316	-245.29645	1249.0775	-83.623695	-392.90921	1111.5823	-96.91124	-391.35947	1216.6104	18.752542	-410.55707	1264.8248	102.64864	-473.63834	1239.4723	74.029488	-465.42273	1315.2443	129.61493	151.99634	887.05212	-35.614361	-146.06882	893.98114	-29.282734	53.445522	921.5636	-218.76956	-34.820431	916.06659	-220.31462
1910	19.09	68.575439	1538.0189	-11.901	-77.589577	1533.6667	-19.436686	71.870918	1526.2273	-150.00671	-77.894165	1515.7587	-150.62924	-10.09857	1318.743	-206.047	6.921505	1102.0851	-232.51723	9.5977364	1241.9163	-12.217925	15.336647	1089.5796	36.277611	-93.801453	1241.3031	-226.45012	155.74854	1329.7656	-148.51865	314.51175	1206.5203	-96.65374	393.47421	1119.1315	-125.04268	388.71149	1195.6218	-70.639503	433.97693	1268.1177	69.347832	498.77148	1259.6106	33.960842	506.22815	1321.1531	87.584816	-132.85161	1329.2922	-109.54267	-245.35555	1249.2161	-83.666756	-393.34708	1111.0149	-96.275734	-392.39844	1210.7065	24.425568	-411.78763	1254.3795	110.73833	-474.81992	1229.5868	80.946404	-467.08661	1302.7328	140.58879	151.91748	887.07843	-35.787781	-146.15587	893.98712	-29.268078	53.243076	921.54541	-218.89789	-35.038986	916.01245	-220.35971
